<svg viewBox="0 0 1623 1630" fill="none" xmlns="http://www.w3.org/2000/svg" width="32" height="32">
<circle cx="809.5" cy="1541.5" r="61" stroke="#0165B3" stroke-width="55"/>
<line x1="810.5" y1="1488" x2="810.5" y2="1283" stroke="#0165B3" stroke-width="85"/>
<circle cx="1534.5" cy="813.5" r="61" transform="rotate(-90 1534.5 813.5)" stroke="#0165B3" stroke-width="55"/>
<line x1="1481" y1="812.5" x2="1276" y2="812.5" stroke="#0165B3" stroke-width="85"/>
<circle cx="809.5" cy="88.5" r="61" transform="rotate(-180 809.5 88.5)" stroke="#0165B3" stroke-width="55"/>
<line x1="808.5" y1="142" x2="808.5" y2="347" stroke="#0165B3" stroke-width="85"/>
<circle cx="88.5" cy="813.5" r="61" transform="rotate(90 88.5 813.5)" stroke="#0165B3" stroke-width="55"/>
<line x1="142" y1="814.5" x2="347" y2="814.5" stroke="#0165B3" stroke-width="85"/>
<circle cx="1361.37" cy="1365.37" r="61" transform="rotate(-45 1361.37 1365.37)" stroke="#0165B3" stroke-width="55"/>
<line x1="1324.24" y1="1326.83" x2="1143.24" y2="1145.83" stroke="#0165B3" stroke-width="85"/>
<circle cx="268.158" cy="276.158" r="61" transform="rotate(135 268.158 276.158)" stroke="#0165B3" stroke-width="55"/>
<line x1="305.282" y1="314.695" x2="486.282" y2="495.695" stroke="#0165B3" stroke-width="85"/>
<circle cx="268.158" cy="276.158" r="61" transform="rotate(135 268.158 276.158)" stroke="#0165B3" stroke-width="55"/>
<line x1="305.282" y1="314.695" x2="486.282" y2="495.695" stroke="#0165B3" stroke-width="85"/>
<path d="M809.5 322C923.637 322 1028.69 360.907 1112.11 426.179L1032.21 503.718C969.541 458.585 892.625 432 809.5 432C598.803 432 428 602.803 428 813.5C428 1024.2 598.803 1195 809.5 1195C1020.2 1195 1191 1024.2 1191 813.5C1191 768.051 1183.05 724.459 1168.47 684.037L1242.8 581.308C1279.94 650.456 1301 729.518 1301 813.5C1301 1084.95 1080.95 1305 809.5 1305C538.052 1305 318 1084.95 318 813.5C318 542.052 538.052 322 809.5 322Z" fill="#0165B3"/>
<path d="M800 1087.5L549 783L654 693L784.5 830.5L1461 174L800 1087.5Z" fill="#0165B3"/>
<circle cx="257.158" cy="1361.41" r="61" transform="rotate(45 257.158 1361.41)" stroke="#0165B3" stroke-width="55"/>
<line x1="295.695" y1="1324.29" x2="476.695" y2="1143.29" stroke="#0165B3" stroke-width="85"/>
</svg>
