<svg width="220" height="44" viewBox="0 0 220 44" fill="none" xmlns="http://www.w3.org/2000/svg">
<g clip-path="url(#clip0_2267_263)">
<path d="M212 0H8C3.58172 0 0 3.58172 0 8V36C0 40.4183 3.58172 44 8 44H212C216.418 44 220 40.4183 220 36V8C220 3.58172 216.418 0 212 0Z" fill="url(#paint0_linear_2267_263)"/>
<path d="M23.7304 34.6249C24.2358 34.6249 24.6454 34.2153 24.6454 33.7099C24.6454 33.2046 24.2358 32.7949 23.7304 32.7949C23.2251 32.7949 22.8154 33.2046 22.8154 33.7099C22.8154 34.2153 23.2251 34.6249 23.7304 34.6249Z" stroke="white" stroke-width="1.05"/>
<path d="M23.7451 32.9075V29.8325" stroke="white" stroke-width="1.65"/>
<path d="M35.5204 22.7901C35.5204 22.2847 35.1108 21.8751 34.6054 21.8751C34.1001 21.8751 33.6904 22.2847 33.6904 22.7901C33.6904 23.2954 34.1001 23.7051 34.6054 23.7051C35.1108 23.7051 35.5204 23.2954 35.5204 22.7901Z" stroke="white" stroke-width="1.05"/>
<path d="M33.8025 22.7749H30.7275" stroke="white" stroke-width="1.65"/>
<path d="M23.7295 11.0001C23.2242 11.0001 22.8145 11.4097 22.8145 11.9151C22.8145 12.4204 23.2242 12.8301 23.7295 12.8301C24.2349 12.8301 24.6445 12.4204 24.6445 11.9151C24.6445 11.4097 24.2349 11.0001 23.7295 11.0001Z" stroke="white" stroke-width="1.05"/>
<path d="M23.7148 12.7173V15.7923" stroke="white" stroke-width="1.65"/>
<path d="M12.0001 22.79C12.0001 23.2953 12.4097 23.705 12.9151 23.705C13.4204 23.705 13.8301 23.2953 13.8301 22.79C13.8301 22.2847 13.4204 21.875 12.9151 21.875C12.4097 21.875 12.0001 22.2847 12.0001 22.79Z" stroke="white" stroke-width="1.05"/>
<path d="M13.7178 22.8052H16.7928" stroke="white" stroke-width="1.65"/>
<path d="M32.6549 31.7149C33.0122 31.3575 33.0122 30.7782 32.6549 30.4209C32.2975 30.0635 31.7182 30.0635 31.3609 30.4209C31.0035 30.7782 31.0035 31.3575 31.3609 31.7149C31.7182 32.0722 32.2975 32.0722 32.6549 31.7149Z" stroke="white" stroke-width="1.05"/>
<path d="M31.4513 30.4899L28.7363 27.7749" stroke="white" stroke-width="1.65"/>
<path d="M14.9633 14.083C14.606 14.4403 14.606 15.0197 14.9633 15.377C15.3206 15.7343 15.9 15.7343 16.2573 15.377C16.6146 15.0197 16.6146 14.4403 16.2573 14.083C15.9 13.7256 15.3206 13.7256 14.9633 14.083Z" stroke="white" stroke-width="1.05"/>
<path d="M16.167 15.3081L18.882 18.0231" stroke="white" stroke-width="1.65"/>
<path d="M14.7983 31.6559C15.1556 32.0132 15.735 32.0132 16.0923 31.6559C16.4496 31.2985 16.4496 30.7192 16.0923 30.3618C15.735 30.0045 15.1556 30.0045 14.7983 30.3618C14.441 30.7192 14.441 31.2985 14.7983 31.6559Z" stroke="white" stroke-width="1.05"/>
<path d="M16.0225 30.4518L18.7375 27.7368" stroke="white" stroke-width="1.65"/>
<path d="M23.7299 15.4175C25.442 15.4175 27.0178 16.0011 28.2691 16.9802L27.0706 18.1433C26.1305 17.4663 24.9768 17.0675 23.7299 17.0675C20.5695 17.0675 18.0074 19.6295 18.0074 22.79C18.0074 25.9505 20.5695 28.5125 23.7299 28.5125C26.8904 28.5125 29.4524 25.9505 29.4524 22.79C29.4524 22.1082 29.3332 21.4544 29.1145 20.848L30.2294 19.3071C30.7865 20.3443 31.1024 21.5303 31.1024 22.79C31.1024 26.8617 27.8017 30.1625 23.7299 30.1625C19.6582 30.1625 16.3574 26.8617 16.3574 22.79C16.3574 18.7183 19.6582 15.4175 23.7299 15.4175Z" fill="white"/>
<path d="M23.5873 26.8998L19.8223 22.3323L21.3973 20.9823L23.3548 23.0448L33.5023 13.1973L23.5873 26.8998Z" fill="white"/>
<path d="M150 23.5C150.828 23.5 151.5 22.8284 151.5 22C151.5 21.1716 150.828 20.5 150 20.5C149.172 20.5 148.5 21.1716 148.5 22C148.5 22.8284 149.172 23.5 150 23.5Z" fill="white" fill-opacity="0.3"/>
<path d="M43.5827 29H40.4521L45.2223 15.1818H48.9872L53.7507 29H50.62L47.1587 18.3395H47.0508L43.5827 29ZM43.3871 23.5685H50.782V25.8491H43.3871V23.5685ZM57.6939 29V15.1818H63.1456C64.1936 15.1818 65.0865 15.382 65.8242 15.7823C66.5619 16.1781 67.1242 16.7292 67.511 17.4354C67.9023 18.1371 68.098 18.9467 68.098 19.8643C68.098 20.782 67.9001 21.5916 67.5043 22.2933C67.1084 22.995 66.5349 23.5415 65.7837 23.9329C65.037 24.3242 64.1329 24.5199 63.0714 24.5199H59.5966V22.1786H62.5991C63.1613 22.1786 63.6246 22.0819 63.989 21.8885C64.3578 21.6906 64.6322 21.4184 64.8121 21.0721C64.9966 20.7212 65.0888 20.3187 65.0888 19.8643C65.0888 19.4055 64.9966 19.0052 64.8121 18.6634C64.6322 18.317 64.3578 18.0494 63.989 17.8604C63.6201 17.667 63.1523 17.5703 62.5856 17.5703H60.6154V29H57.6939ZM72.2756 29V15.1818H77.7273C78.7754 15.1818 79.6683 15.382 80.406 15.7823C81.1437 16.1781 81.7059 16.7292 82.0928 17.4354C82.4841 18.1371 82.6798 18.9467 82.6798 19.8643C82.6798 20.782 82.4818 21.5916 82.086 22.2933C81.6902 22.995 81.1167 23.5415 80.3655 23.9329C79.6188 24.3242 78.7147 24.5199 77.6531 24.5199H74.1783V22.1786H77.1808C77.7431 22.1786 78.2064 22.0819 78.5707 21.8885C78.9396 21.6906 79.214 21.4184 79.3939 21.0721C79.5783 20.7212 79.6705 20.3187 79.6705 19.8643C79.6705 19.4055 79.5783 19.0052 79.3939 18.6634C79.214 18.317 78.9396 18.0494 78.5707 17.8604C78.2019 17.667 77.7341 17.5703 77.1673 17.5703H75.1972V29H72.2756ZM105.727 20.0195H102.772C102.718 19.6372 102.608 19.2976 102.441 19.0007C102.275 18.6993 102.061 18.4429 101.8 18.2315C101.539 18.0201 101.238 17.8582 100.896 17.7457C100.559 17.6333 100.192 17.5771 99.7962 17.5771C99.081 17.5771 98.458 17.7547 97.9273 18.1101C97.3965 18.4609 96.9849 18.9737 96.6925 19.6484C96.4002 20.3187 96.254 21.1328 96.254 22.0909C96.254 23.076 96.4002 23.9036 96.6925 24.5739C96.9894 25.2441 97.4032 25.7501 97.934 26.092C98.4648 26.4338 99.0788 26.6048 99.776 26.6048C100.167 26.6048 100.529 26.553 100.862 26.4496C101.2 26.3461 101.499 26.1954 101.76 25.9975C102.021 25.7951 102.236 25.55 102.407 25.2621C102.583 24.9742 102.704 24.6458 102.772 24.277L105.727 24.2905C105.651 24.9247 105.459 25.5365 105.153 26.1257C104.852 26.7105 104.445 27.2345 103.932 27.6978C103.424 28.1566 102.817 28.521 102.111 28.7908C101.409 29.0562 100.615 29.1889 99.7288 29.1889C98.4963 29.1889 97.3942 28.91 96.4226 28.3523C95.4556 27.7945 94.6909 26.9871 94.1286 25.93C93.5708 24.873 93.292 23.5933 93.292 22.0909C93.292 20.584 93.5753 19.3021 94.1421 18.245C94.7089 17.188 95.478 16.3828 96.4496 15.8295C97.4212 15.2718 98.5143 14.9929 99.7288 14.9929C100.529 14.9929 101.272 15.1053 101.955 15.3303C102.644 15.5552 103.253 15.8835 103.784 16.3153C104.315 16.7427 104.746 17.2667 105.079 17.8874C105.417 18.5082 105.633 19.2189 105.727 20.0195ZM110.102 29V15.1818H119.413V17.5906H113.023V20.8832H118.934V23.2919H113.023V26.5913H119.44V29H110.102ZM124.016 29V15.1818H129.467C130.511 15.1818 131.402 15.3685 132.139 15.7418C132.882 16.1107 133.446 16.6347 133.833 17.3139C134.224 17.9886 134.42 18.7826 134.42 19.6957C134.42 20.6133 134.222 21.4027 133.826 22.0639C133.43 22.7206 132.857 23.2244 132.106 23.5753C131.359 23.9261 130.455 24.1016 129.393 24.1016H125.743V21.7536H128.921C129.479 21.7536 129.942 21.6771 130.311 21.5241C130.68 21.3712 130.954 21.1418 131.134 20.8359C131.318 20.5301 131.411 20.15 131.411 19.6957C131.411 19.2369 131.318 18.85 131.134 18.5352C130.954 18.2203 130.677 17.9819 130.304 17.82C129.935 17.6535 129.47 17.5703 128.907 17.5703H126.937V29H124.016ZM131.478 22.7116L134.912 29H131.687L128.327 22.7116H131.478ZM138.238 17.5906V15.1818H149.587V17.5906H145.356V29H142.469V17.5906H138.238ZM156.657 15.1818V29H153.736V15.1818H156.657ZM161.341 29V15.1818H170.49V17.5906H164.263V20.8832H169.883V23.2919H164.263V29H161.341ZM177.657 15.1818V29H174.735V15.1818H177.657ZM182.341 29V15.1818H191.652V17.5906H185.262V20.8832H191.173V23.2919H185.262V26.5913H191.679V29H182.341ZM201.153 29H196.254V15.1818H201.193C202.583 15.1818 203.78 15.4585 204.783 16.0117C205.786 16.5605 206.557 17.3499 207.097 18.38C207.641 19.41 207.913 20.6425 207.913 22.0774C207.913 23.5168 207.641 24.7538 207.097 25.7884C206.557 26.8229 205.781 27.6168 204.769 28.1701C203.762 28.7234 202.556 29 201.153 29ZM199.176 26.4968H201.031C201.895 26.4968 202.621 26.3439 203.211 26.038C203.804 25.7276 204.25 25.2486 204.547 24.6009C204.848 23.9486 204.999 23.1075 204.999 22.0774C204.999 21.0563 204.848 20.2219 204.547 19.5742C204.25 18.9265 203.807 18.4497 203.217 18.1438C202.628 17.8379 201.902 17.685 201.038 17.685H199.176V26.4968Z" fill="white"/>
</g>
<defs>
<linearGradient id="paint0_linear_2267_263" x1="0" y1="0" x2="1.82748" y2="45.6869" gradientUnits="userSpaceOnUse">
<stop stop-color="#0165B3"/>
<stop offset="1" stop-color="#014D8A"/>
</linearGradient>
<clipPath id="clip0_2267_263">
<rect width="220" height="44" fill="white"/>
</clipPath>
</defs>
</svg>
