<svg width="72" height="72" viewBox="0 0 72 72" fill="none" xmlns="http://www.w3.org/2000/svg">
<g clip-path="url(#clip0_2267_76)">
<path d="M56 0H16C7.16344 0 0 7.16344 0 16V56C0 64.8366 7.16344 72 16 72H56C64.8366 72 72 64.8366 72 56V16C72 7.16344 64.8366 0 56 0Z" fill="url(#paint0_linear_2267_76)"/>
<path d="M35.5504 55.3752C36.3926 55.3752 37.0754 54.6924 37.0754 53.8502C37.0754 53.008 36.3926 52.3252 35.5504 52.3252C34.7082 52.3252 34.0254 53.008 34.0254 53.8502C34.0254 54.6924 34.7082 55.3752 35.5504 55.3752Z" stroke="white" stroke-width="1.55"/>
<path d="M35.5752 52.5127V47.3877" stroke="white" stroke-width="2.375"/>
<path d="M55.2004 35.6498C55.2004 34.8076 54.5176 34.1248 53.6754 34.1248C52.8332 34.1248 52.1504 34.8076 52.1504 35.6498C52.1504 36.492 52.8332 37.1748 53.6754 37.1748C54.5176 37.1748 55.2004 36.492 55.2004 35.6498Z" stroke="white" stroke-width="1.55"/>
<path d="M52.3379 35.625H47.2129" stroke="white" stroke-width="2.375"/>
<path d="M35.5502 15.9998C34.708 15.9998 34.0252 16.6826 34.0252 17.5248C34.0252 18.367 34.708 19.0498 35.5502 19.0498C36.3924 19.0498 37.0752 18.367 37.0752 17.5248C37.0752 16.6826 36.3924 15.9998 35.5502 15.9998Z" stroke="white" stroke-width="1.55"/>
<path d="M35.5254 18.8623V23.9873" stroke="white" stroke-width="2.375"/>
<path d="M15.9998 35.65C15.9998 36.4922 16.6826 37.175 17.5248 37.175C18.367 37.175 19.0498 36.4922 19.0498 35.65C19.0498 34.8078 18.367 34.125 17.5248 34.125C16.6826 34.125 15.9998 34.8078 15.9998 35.65Z" stroke="white" stroke-width="1.55"/>
<path d="M18.8623 35.6748H23.9873" stroke="white" stroke-width="2.375"/>
<path d="M50.4254 50.5251C51.021 49.9296 51.021 48.964 50.4254 48.3684C49.8299 47.7729 48.8643 47.7729 48.2688 48.3684C47.6732 48.964 47.6732 49.9296 48.2688 50.5251C48.8643 51.1207 49.8299 51.1207 50.4254 50.5251Z" stroke="white" stroke-width="1.55"/>
<path d="M48.4186 48.483L43.8936 43.958" stroke="white" stroke-width="2.375"/>
<path d="M20.9378 21.138C20.3423 21.7335 20.3423 22.6991 20.9378 23.2946C21.5334 23.8902 22.499 23.8902 23.0945 23.2946C23.6901 22.6991 23.6901 21.7335 23.0945 21.138C22.499 20.5424 21.5334 20.5424 20.9378 21.138Z" stroke="white" stroke-width="1.55"/>
<path d="M22.9443 23.1797L27.4693 27.7047" stroke="white" stroke-width="2.375"/>
<path d="M20.6629 50.4259C21.2584 51.0215 22.224 51.0215 22.8195 50.4259C23.4151 49.8304 23.4151 48.8648 22.8195 48.2693C22.224 47.6737 21.2584 47.6737 20.6629 48.2693C20.0673 48.8648 20.0673 49.8304 20.6629 50.4259Z" stroke="white" stroke-width="1.55"/>
<path d="M22.7051 48.4195L27.2301 43.8945" stroke="white" stroke-width="2.375"/>
<path d="M35.5502 23.3623C38.4036 23.3623 41.0299 24.335 43.1154 25.9668L41.1179 27.9053C39.5512 26.7769 37.6283 26.1123 35.5502 26.1123C30.2828 26.1123 26.0127 30.3824 26.0127 35.6498C26.0127 40.9173 30.2828 45.1873 35.5502 45.1873C40.8177 45.1873 45.0877 40.9173 45.0877 35.6498C45.0877 34.5136 44.8889 33.4238 44.5244 32.4132L46.3827 29.845C47.3112 31.5737 47.8377 33.5503 47.8377 35.6498C47.8377 42.4361 42.3364 47.9373 35.5502 47.9373C28.764 47.9373 23.2627 42.4361 23.2627 35.6498C23.2627 28.8636 28.764 23.3623 35.5502 23.3623Z" fill="white"/>
<path d="M35.3121 42.5001L29.0371 34.8876L31.6621 32.6376L34.9246 36.0751L51.8371 19.6626L35.3121 42.5001Z" fill="white"/>
</g>
<defs>
<linearGradient id="paint0_linear_2267_76" x1="0" y1="0" x2="14.4" y2="72" gradientUnits="userSpaceOnUse">
<stop stop-color="#0165B3"/>
<stop offset="1" stop-color="#014D8A"/>
</linearGradient>
<clipPath id="clip0_2267_76">
<rect width="72" height="72" fill="white"/>
</clipPath>
</defs>
</svg>
